<?xml version="1.0" encoding="utf-8"?>
<!-- Generator: Adobe Illustrator 17.0.0, SVG Export Plug-In . SVG Version: 6.00 Build 0)  -->
<!DOCTYPE svg PUBLIC "-//W3C//DTD SVG 1.1//EN" "http://www.w3.org/Graphics/SVG/1.1/DTD/svg11.dtd">
<svg version="1.1" id="Calque_1" xmlns="http://www.w3.org/2000/svg" xmlns:xlink="http://www.w3.org/1999/xlink" x="0px" y="0px"
	 width="2000px" height="600px" viewBox="0 0 2000 600" enable-background="new 0 0 2000 600" xml:space="preserve">
<rect y="400" fill="#F4A261" width="2000" height="200"/>
<rect y="200" fill="#E9C46A" width="2000" height="200"/>
<rect fill="#E9D8B6" width="2000" height="200"/>
<g>
	<path fill="#333333" d="M20.635,29.583h-3.908V9.249h3.908v8.51h6.386v-8.51h3.667v20.334h-3.667v-8.51h-6.386V29.583z"/>
	<path fill="#333333" d="M38.802,12.732h-5.282V9.249h13.962v3.483h-4.772v16.851h-3.908V12.732z"/>
	<path fill="#333333" d="M54.222,29.583h-3.908V9.249h3.908l3.965,11.144l4.121-11.144h3.667v20.334h-3.667v-8.51l-2.847,8.51
		h-2.294l-2.945-8.51C54.223,21.073,54.223,29.583,54.222,29.583z"/>
	<path fill="#333333" d="M72.715,26.1H82.77v3.483H68.807V9.249h3.908C72.715,9.249,72.715,26.1,72.715,26.1z"/>
</g>
<g enable-background="new    ">
	<path fill="#F45661" d="M21.632,230.147h12.134v4.204H16.916V209.81h16.851v4.204H21.632V230.147z"/>
	<path fill="#F45661" d="M37.184,224.08v-14.27h16.851v4.204H41.901v6.067h12.134v14.27H37.184v-4.204h12.424v-6.067H37.184z"/>
	<path fill="#F45661" d="M57.453,224.08v-14.27h16.851v4.204H62.169v6.067h12.134v14.27H57.453v-4.204h12.424v-6.067H57.453z"/>
</g>
<g enable-background="new    ">
	<path fill="#E6E6E6" d="M33.476,424.128v6.374h7.708v-20.337h4.426v24.541H28.759v-10.578H33.476z"/>
	<path fill="#E6E6E6" d="M49.027,424.435v-14.27h16.851v4.204H53.744v6.067h12.134v14.27H49.027v-4.204h12.424v-6.067H49.027z"/>
</g>
<path fill="#333333" d="M24.233,34.454l4.226,47.929l18.963,6.321l19.084-6.321l4.226-47.929H24.233z M61.554,49.942H39.297
	l0.496,5.982h21.264l-1.647,17.97l-11.855,3.27V77.2h-0.133L35.47,73.894l-0.727-9.179h5.776l0.424,4.614l6.479,1.756l6.503-1.756
	l0.727-7.532H34.441l-1.55-17.631h29.196L61.554,49.942z"/>
<path fill="#F45661" d="M22.502,239.934l4.2,47.634l18.907,6.282l18.907-6.282l4.2-47.634H22.502z M60.184,249.562l-0.578,5.693
	l-13.876,5.933l-0.036,0.012h13.419l-1.54,17.643l-11.818,3.454l-11.89-3.514l-0.77-8.894h5.885l0.385,4.609l6.33,1.601l6.583-1.853
	l0.445-7.413l-20.014-0.06v-0.012l-0.024,0.012l-0.433-5.572l13.491-5.62l0.782-0.325H31.733l-0.698-5.693H60.184z"/>
<path fill="#E6E6E6" d="M25.33,440.844v44.306h44.306v-44.306H25.33z M49.441,475.398c0,4.312-2.532,6.28-6.221,6.28
	c-3.333,0-5.261-1.721-6.25-3.808l3.392-2.047c0.653,1.157,1.246,2.136,2.68,2.136c1.365,0,2.235-0.534,2.235-2.621v-14.152h4.164
	V475.398L49.441,475.398z M59.291,481.678c-3.867,0-6.369-1.839-7.585-4.253l3.392-1.958c0.89,1.454,2.057,2.532,4.104,2.532
	c1.721,0,2.828-0.86,2.828-2.057c0-1.424-1.127-1.928-3.036-2.769l-1.038-0.445c-3.006-1.276-4.994-2.888-4.994-6.28
	c0-3.125,2.383-5.499,6.092-5.499c2.65,0,4.549,0.92,5.914,3.333l-3.244,2.077c-0.712-1.276-1.483-1.78-2.68-1.78
	c-1.216,0-1.988,0.771-1.988,1.78c0,1.246,0.771,1.75,2.561,2.532l1.038,0.445c3.541,1.513,5.528,3.066,5.528,6.547
	C66.184,479.621,63.237,481.678,59.291,481.678L59.291,481.678z"/>
</svg>
