<?xml version="1.0" encoding="utf-8"?>
<!-- Generator: Adobe Illustrator 17.0.0, SVG Export Plug-In . SVG Version: 6.00 Build 0)  -->
<!DOCTYPE svg PUBLIC "-//W3C//DTD SVG 1.1//EN" "http://www.w3.org/Graphics/SVG/1.1/DTD/svg11.dtd">
<svg version="1.1" id="Calque_1" xmlns="http://www.w3.org/2000/svg" xmlns:xlink="http://www.w3.org/1999/xlink" x="0px" y="0px"
	 width="100px" height="100px" viewBox="0 0 100 100" enable-background="new 0 0 100 100" xml:space="preserve">
<g enable-background="new    ">
	<path fill="#F45661" d="M19.999,24.021h14.332v4.965H14.429V0h19.903v4.965H19.999V24.021z"/>
	<path fill="#F45661" d="M38.368,16.855V0h19.903v4.965H43.94v7.166h14.332v16.855H38.368v-4.965h14.674v-7.166H38.368z"/>
	<path fill="#F45661" d="M62.309,16.855V0h19.903v4.965H67.879v7.166h14.332v16.855H62.309v-4.965h14.674v-7.166H62.309z"/>
</g>
<path fill="#F45661" d="M21.027,35.58l4.961,56.262l22.332,7.42l22.332-7.42l4.961-56.262L21.027,35.58L21.027,35.58z
	 M65.534,46.952l-0.683,6.724l-16.389,7.008l-0.043,0.014h15.85L62.45,81.537l-13.959,4.08l-14.044-4.15l-0.909-10.505h6.951
	l0.455,5.444l7.477,1.891l7.775-2.189l0.526-8.756l-23.639-0.071v-0.014l-0.028,0.014L32.543,60.7l15.935-6.638l0.924-0.384H31.93
	l-0.824-6.724h34.429V46.952z"/>
</svg>
