<?xml version="1.0" encoding="utf-8"?>
<!-- Generator: Adobe Illustrator 17.0.0, SVG Export Plug-In . SVG Version: 6.00 Build 0)  -->
<!DOCTYPE svg PUBLIC "-//W3C//DTD SVG 1.1//EN" "http://www.w3.org/Graphics/SVG/1.1/DTD/svg11.dtd">
<svg version="1.1" id="Calque_1" xmlns="http://www.w3.org/2000/svg" xmlns:xlink="http://www.w3.org/1999/xlink" x="0px" y="0px"
	 width="100px" height="100px" viewBox="0 0 100 100" enable-background="new 0 0 100 100" xml:space="preserve">
<g>
	<path fill="#333333" d="M14.331,25.65H9.424V0.12h4.907v10.685h8.018V0.12h4.604V25.65h-4.604V14.966h-8.018
		C14.331,14.966,14.331,25.65,14.331,25.65z"/>
	<path fill="#333333" d="M37.141,4.493h-6.632V0.12h17.53v4.373h-5.992V25.65h-4.907C37.141,25.65,37.141,4.493,37.141,4.493z"/>
	<path fill="#333333" d="M56.501,25.65h-4.907V0.12h4.907l4.978,13.992L66.654,0.12h4.604V25.65h-4.604V14.966L63.079,25.65h-2.88
		l-3.698-10.685C56.503,14.966,56.503,25.65,56.501,25.65z"/>
	<path fill="#333333" d="M79.72,21.277h12.625v4.373H74.814V0.12h4.907V21.277z"/>
</g>
<path fill="#333333" d="M18.848,31.766l5.306,60.178l23.809,7.936l23.961-7.936l5.306-60.178
	C77.231,31.766,18.848,31.766,18.848,31.766z M65.707,51.212H37.762l0.623,7.511h26.698l-2.068,22.562l-14.885,4.106v0.045h-0.167
	l-15.006-4.151l-0.913-11.525h7.252l0.532,5.793l8.135,2.205l8.165-2.205l0.913-9.457H31.665L29.719,43.96h36.657L65.707,51.212z"/>
</svg>
