<?xml version="1.0" encoding="utf-8"?>
<!-- Generator: Adobe Illustrator 17.0.0, SVG Export Plug-In . SVG Version: 6.00 Build 0)  -->
<!DOCTYPE svg PUBLIC "-//W3C//DTD SVG 1.1//EN" "http://www.w3.org/Graphics/SVG/1.1/DTD/svg11.dtd">
<svg version="1.1" id="Calque_1" xmlns="http://www.w3.org/2000/svg" xmlns:xlink="http://www.w3.org/1999/xlink" x="0px" y="0px"
	 width="100px" height="100px" viewBox="0 0 100 100" enable-background="new 0 0 100 100" xml:space="preserve">
<g enable-background="new    ">
	<path fill="#E6E6E6" d="M29.192,18.621v8.5h10.279V0h5.903v32.728H22.901V18.621H29.192z"/>
	<path fill="#E6E6E6" d="M49.93,19.03V0h22.472v5.606H56.221v8.091h16.182v19.03H49.93v-5.606h16.569V19.03H49.93z"/>
</g>
<path fill="#E6E6E6" d="M18.328,40.914V100h59.086V40.914H18.328z M50.482,86.995c0,5.75-3.377,8.375-8.296,8.375
	c-4.445,0-7.016-2.295-8.335-5.078l4.524-2.73c0.871,1.543,1.662,2.849,3.574,2.849c1.82,0,2.981-0.712,2.981-3.495V68.042h5.553
	V86.995L50.482,86.995z M63.618,95.37c-5.157,0-8.494-2.452-10.115-5.672l4.524-2.611c1.187,1.939,2.743,3.377,5.473,3.377
	c2.295,0,3.771-1.147,3.771-2.743c0-1.899-1.503-2.571-4.049-3.693l-1.384-0.593c-4.009-1.702-6.66-3.851-6.66-8.375
	c0-4.167,3.178-7.333,8.124-7.333c3.534,0,6.067,1.227,7.887,4.445l-4.326,2.77c-0.95-1.702-1.978-2.374-3.574-2.374
	c-1.622,0-2.651,1.028-2.651,2.374c0,1.662,1.028,2.334,3.415,3.377l1.384,0.593c4.722,2.018,7.372,4.089,7.372,8.731
	C72.811,92.627,68.881,95.37,63.618,95.37L63.618,95.37z"/>
</svg>
